<?xml version="1.0" standalone="no"?><!DOCTYPE svg PUBLIC "-//W3C//DTD SVG 1.1//EN" "http://www.w3.org/Graphics/SVG/1.1/DTD/svg11.dtd"><svg t="1680597469710" class="icon" viewBox="0 0 1027 1024" version="1.1" xmlns="http://www.w3.org/2000/svg" p-id="812" width="1203.515625" height="1200" xmlns:xlink="http://www.w3.org/1999/xlink"><path d="M1027.84064 512a509.376 509.376 0 0 1-511.68 510.08C228.92864 1022.08 0.00064 791.424 0.00064 512A509.376 509.376 0 0 1 511.68064 1.92C798.91264 1.92 1027.84064 232.576 1027.84064 512z m-379.648-21.056L517.63264 222.72 388.67264 490.944l-172.16-130.24 49.344 320.192a25.6 25.6 0 0 0-0.192-3.328c2.56 19.84 17.152 36.224 36.928 43.008a33.28 33.28 0 0 0-5.248-1.344c41.984 14.272 124.288 23.552 219.072 22.784 95.36-0.768 173.376-10.24 215.936-25.28 19.712-6.848 34.368-23.296 36.928-43.072l51.456-312.96-172.544 130.24z" fill="#096dd9" p-id="813"></path></svg>